<svg xmlns="http://www.w3.org/2000/svg" xmlns:xlink="http://www.w3.org/1999/xlink" width="500" zoomAndPan="magnify" viewBox="0 0 375 374.999991" height="500" preserveAspectRatio="xMidYMid meet" version="1.0"><defs><clipPath id="id1"><path d="M 39.226562 37.5 L 328.726562 37.5 L 328.726562 327 L 39.226562 327 Z M 39.226562 37.5 " clip-rule="nonzero"/></clipPath><clipPath id="id2"><path d="M 54 207 L 313 207 L 313 343.5 L 54 343.5 Z M 54 207 " clip-rule="nonzero"/></clipPath></defs><rect x="-37.5" width="450" fill="#ffffff" y="-37.499999" height="449.999989" fill-opacity="1"/><rect x="-37.5" width="450" fill="#ffffff" y="-37.499999" height="449.999989" fill-opacity="1"/><rect x="-37.5" width="450" fill="#ffffff" y="-37.499999" height="449.999989" fill-opacity="1"/><g clip-path="url(#id1)"><path fill="#ffcb4c" d="M 328.566406 182 C 328.566406 261.804688 263.835938 326.5 183.976562 326.5 C 104.128906 326.5 39.386719 261.804688 39.386719 182 C 39.386719 102.203125 104.128906 37.5 183.976562 37.5 C 263.835938 37.5 328.566406 102.203125 328.566406 182 " fill-opacity="1" fill-rule="nonzero"/></g><path fill="#65471b" d="M 183.976562 268.15625 C 212.34375 268.15625 231.15625 271.453125 254.4375 275.976562 C 259.75 276.996094 270.09375 275.976562 270.09375 260.328125 C 270.09375 229.03125 234.117188 189.914062 183.976562 189.914062 C 133.839844 189.914062 97.859375 229.03125 97.859375 260.328125 C 97.859375 275.976562 108.203125 277.003906 113.519531 275.976562 C 136.789062 271.453125 155.613281 268.15625 183.976562 268.15625 Z M 285.191406 183.605469 C 284.273438 182.917969 269.6875 172.15625 247.871094 164.789062 C 248.089844 163.871094 248.242188 162.917969 248.242188 161.929688 C 248.242188 158.964844 247.128906 156.289062 245.359375 154.195312 C 259.84375 150.015625 272.144531 149.894531 272.363281 149.894531 C 276.789062 149.886719 280.386719 146.28125 280.375 141.855469 C 280.367188 137.425781 276.789062 133.839844 272.347656 133.839844 C 270.578125 133.839844 228.5625 134.144531 202.410156 160.273438 C 200.113281 162.570312 199.421875 166.019531 200.664062 169.019531 C 201.90625 172.019531 204.839844 173.976562 208.082031 173.976562 C 244.953125 173.976562 275.265625 196.230469 275.570312 196.457031 C 277.015625 197.53125 278.703125 198.046875 280.367188 198.046875 C 282.816406 198.046875 285.234375 196.933594 286.808594 194.835938 C 289.453125 191.28125 288.730469 186.265625 285.191406 183.605469 Z M 165.554688 160.265625 C 139.410156 134.128906 97.394531 133.832031 95.617188 133.832031 C 91.183594 133.832031 87.59375 137.417969 87.585938 141.847656 C 87.578125 146.273438 91.167969 149.871094 95.597656 149.886719 C 95.8125 149.886719 108.117188 150.015625 122.59375 154.1875 C 120.824219 156.289062 119.710938 158.964844 119.710938 161.921875 C 119.710938 162.910156 119.863281 163.859375 120.085938 164.777344 C 98.269531 172.148438 83.675781 182.910156 82.753906 183.597656 C 79.207031 186.257812 78.484375 191.289062 81.148438 194.835938 C 82.722656 196.941406 85.136719 198.046875 87.578125 198.046875 C 89.253906 198.046875 90.945312 197.519531 92.390625 196.441406 C 92.691406 196.21875 122.808594 173.96875 159.863281 173.96875 C 163.113281 173.96875 166.039062 172.011719 167.28125 169.011719 C 168.539062 166.011719 167.859375 162.570312 165.554688 160.265625 Z M 165.554688 160.265625 " fill-opacity="1" fill-rule="nonzero"/><g clip-path="url(#id2)"><path fill="#77af57" d="M 249.570312 311.9375 L 249.570312 251.582031 C 249.570312 229.539062 216.492188 207.507812 183.417969 207.507812 C 150.339844 207.507812 117.261719 229.550781 117.261719 251.582031 L 117.261719 311.9375 C 79.8125 314.90625 54.671875 320.3125 54.671875 326.5 C 54.671875 335.890625 112.3125 343.5 183.417969 343.5 C 254.519531 343.5 312.160156 335.890625 312.160156 326.5 C 312.160156 320.3125 287.019531 314.90625 249.570312 311.9375 Z M 249.570312 311.9375 " fill-opacity="1" fill-rule="nonzero"/></g><path fill="#5d8f3f" d="M 176.40625 234.9375 C 176.40625 235.628906 176.339844 236.308594 176.207031 236.984375 C 176.070312 237.660156 175.871094 238.316406 175.609375 238.957031 C 175.34375 239.59375 175.019531 240.195312 174.636719 240.769531 C 174.253906 241.34375 173.820312 241.875 173.332031 242.359375 C 172.84375 242.847656 172.3125 243.285156 171.738281 243.667969 C 171.164062 244.050781 170.558594 244.371094 169.921875 244.636719 C 169.285156 244.898438 168.628906 245.097656 167.953125 245.234375 C 167.277344 245.367188 166.59375 245.433594 165.902344 245.433594 C 165.214844 245.433594 164.53125 245.367188 163.855469 245.234375 C 163.179688 245.097656 162.519531 244.898438 161.882812 244.636719 C 161.246094 244.371094 160.640625 244.050781 160.066406 243.667969 C 159.496094 243.285156 158.964844 242.847656 158.476562 242.359375 C 157.988281 241.875 157.554688 241.34375 157.167969 240.769531 C 156.785156 240.195312 156.464844 239.59375 156.199219 238.957031 C 155.933594 238.316406 155.734375 237.660156 155.601562 236.984375 C 155.464844 236.308594 155.398438 235.628906 155.398438 234.9375 C 155.398438 234.25 155.464844 233.566406 155.601562 232.890625 C 155.734375 232.214844 155.933594 231.558594 156.199219 230.921875 C 156.464844 230.285156 156.785156 229.679688 157.167969 229.105469 C 157.554688 228.53125 157.988281 228.003906 158.476562 227.515625 C 158.964844 227.027344 159.496094 226.59375 160.066406 226.210938 C 160.640625 225.828125 161.246094 225.503906 161.882812 225.238281 C 162.519531 224.976562 163.179688 224.777344 163.855469 224.640625 C 164.53125 224.507812 165.214844 224.441406 165.902344 224.441406 C 166.59375 224.441406 167.277344 224.507812 167.953125 224.640625 C 168.628906 224.777344 169.285156 224.976562 169.921875 225.238281 C 170.558594 225.503906 171.164062 225.828125 171.738281 226.210938 C 172.3125 226.59375 172.84375 227.027344 173.332031 227.515625 C 173.820312 228.003906 174.253906 228.53125 174.636719 229.105469 C 175.019531 229.679688 175.34375 230.285156 175.609375 230.921875 C 175.871094 231.558594 176.070312 232.214844 176.207031 232.890625 C 176.339844 233.566406 176.40625 234.25 176.40625 234.9375 Z M 176.40625 234.9375 " fill-opacity="1" fill-rule="nonzero"/><path fill="#5d8f3f" d="M 217.429688 255.441406 C 217.429688 256.128906 217.363281 256.8125 217.226562 257.488281 C 217.09375 258.164062 216.894531 258.820312 216.628906 259.457031 C 216.367188 260.09375 216.042969 260.699219 215.660156 261.273438 C 215.277344 261.84375 214.839844 262.375 214.351562 262.863281 C 213.863281 263.351562 213.335938 263.785156 212.761719 264.167969 C 212.1875 264.550781 211.582031 264.875 210.945312 265.136719 C 210.308594 265.402344 209.652344 265.601562 208.972656 265.734375 C 208.296875 265.871094 207.613281 265.9375 206.925781 265.9375 C 206.234375 265.9375 205.550781 265.871094 204.875 265.734375 C 204.199219 265.601562 203.542969 265.402344 202.90625 265.136719 C 202.269531 264.875 201.664062 264.550781 201.089844 264.167969 C 200.515625 263.785156 199.984375 263.351562 199.496094 262.863281 C 199.007812 262.375 198.574219 261.84375 198.191406 261.273438 C 197.808594 260.699219 197.484375 260.09375 197.21875 259.457031 C 196.957031 258.820312 196.757812 258.164062 196.621094 257.488281 C 196.488281 256.8125 196.421875 256.128906 196.421875 255.441406 C 196.421875 254.75 196.488281 254.066406 196.621094 253.390625 C 196.757812 252.714844 196.957031 252.058594 197.21875 251.421875 C 197.484375 250.785156 197.808594 250.179688 198.191406 249.609375 C 198.574219 249.035156 199.007812 248.503906 199.496094 248.015625 C 199.984375 247.53125 200.515625 247.09375 201.089844 246.710938 C 201.664062 246.328125 202.269531 246.003906 202.90625 245.742188 C 203.542969 245.476562 204.199219 245.277344 204.875 245.144531 C 205.550781 245.007812 206.234375 244.941406 206.925781 244.941406 C 207.613281 244.941406 208.296875 245.007812 208.972656 245.144531 C 209.652344 245.277344 210.308594 245.476562 210.945312 245.742188 C 211.582031 246.003906 212.1875 246.328125 212.761719 246.710938 C 213.335938 247.09375 213.863281 247.53125 214.351562 248.015625 C 214.839844 248.503906 215.277344 249.035156 215.660156 249.609375 C 216.042969 250.179688 216.367188 250.785156 216.628906 251.421875 C 216.894531 252.058594 217.09375 252.714844 217.226562 253.390625 C 217.363281 254.066406 217.429688 254.75 217.429688 255.441406 Z M 217.429688 255.441406 " fill-opacity="1" fill-rule="nonzero"/><path fill="#5d8f3f" d="M 213.15625 286.507812 C 213.839844 286.617188 214.503906 286.792969 215.148438 287.035156 C 215.792969 287.277344 216.410156 287.578125 216.996094 287.941406 C 217.585938 288.304688 218.128906 288.71875 218.632812 289.1875 C 219.140625 289.660156 219.59375 290.171875 219.996094 290.734375 C 220.398438 291.292969 220.746094 291.886719 221.03125 292.511719 C 221.316406 293.140625 221.539062 293.789062 221.699219 294.457031 C 221.855469 295.128906 221.949219 295.808594 221.972656 296.5 C 221.996094 297.1875 221.953125 297.871094 221.84375 298.550781 C 221.734375 299.234375 221.558594 299.894531 221.316406 300.542969 C 221.074219 301.1875 220.773438 301.804688 220.410156 302.390625 C 220.046875 302.976562 219.632812 303.519531 219.160156 304.027344 C 218.691406 304.53125 218.175781 304.984375 217.617188 305.386719 C 217.058594 305.789062 216.464844 306.132812 215.835938 306.421875 C 215.207031 306.707031 214.558594 306.929688 213.886719 307.085938 C 213.21875 307.246094 212.535156 307.335938 211.847656 307.359375 C 211.15625 307.386719 210.472656 307.34375 209.792969 307.230469 C 209.113281 307.121094 208.449219 306.945312 207.800781 306.703125 C 207.15625 306.464844 206.539062 306.164062 205.953125 305.800781 C 205.367188 305.4375 204.820312 305.019531 204.316406 304.550781 C 203.8125 304.082031 203.355469 303.566406 202.953125 303.007812 C 202.550781 302.449219 202.207031 301.855469 201.917969 301.230469 C 201.632812 300.601562 201.410156 299.953125 201.25 299.28125 C 201.09375 298.609375 201.003906 297.929688 200.976562 297.242188 C 200.953125 296.554688 200.996094 295.867188 201.105469 295.1875 C 201.21875 294.507812 201.394531 293.84375 201.632812 293.199219 C 201.875 292.554688 202.175781 291.9375 202.539062 291.351562 C 202.902344 290.765625 203.320312 290.21875 203.789062 289.714844 C 204.257812 289.210938 204.773438 288.757812 205.332031 288.355469 C 205.894531 287.949219 206.488281 287.605469 207.113281 287.320312 C 207.742188 287.035156 208.390625 286.8125 209.0625 286.652344 C 209.734375 286.496094 210.414062 286.402344 211.101562 286.378906 C 211.792969 286.355469 212.476562 286.398438 213.15625 286.507812 Z M 213.15625 286.507812 " fill-opacity="1" fill-rule="nonzero"/><path fill="#5d8f3f" d="M 161.777344 299.347656 C 162.75 299.507812 163.699219 299.757812 164.621094 300.101562 C 165.542969 300.445312 166.425781 300.878906 167.265625 301.394531 C 168.101562 301.914062 168.882812 302.507812 169.605469 303.179688 C 170.324219 303.851562 170.972656 304.585938 171.550781 305.386719 C 172.125 306.183594 172.617188 307.03125 173.027344 307.929688 C 173.4375 308.824219 173.753906 309.753906 173.980469 310.710938 C 174.207031 311.671875 174.339844 312.640625 174.375 313.625 C 174.410156 314.609375 174.347656 315.589844 174.191406 316.5625 C 174.03125 317.535156 173.78125 318.480469 173.433594 319.40625 C 173.089844 320.328125 172.660156 321.207031 172.140625 322.046875 C 171.621094 322.882812 171.027344 323.664062 170.355469 324.382812 C 169.683594 325.105469 168.949219 325.753906 168.148438 326.328125 C 167.347656 326.90625 166.5 327.398438 165.605469 327.804688 C 164.707031 328.214844 163.78125 328.53125 162.820312 328.757812 C 161.859375 328.984375 160.886719 329.117188 159.902344 329.152344 C 158.917969 329.1875 157.9375 329.125 156.964844 328.964844 C 155.992188 328.808594 155.046875 328.558594 154.121094 328.214844 C 153.199219 327.867188 152.316406 327.4375 151.480469 326.917969 C 150.640625 326.402344 149.859375 325.808594 149.140625 325.136719 C 148.417969 324.464844 147.769531 323.730469 147.191406 322.929688 C 146.617188 322.128906 146.125 321.28125 145.714844 320.386719 C 145.304688 319.492188 144.988281 318.5625 144.761719 317.605469 C 144.535156 316.644531 144.402344 315.675781 144.367188 314.691406 C 144.335938 313.707031 144.394531 312.726562 144.554688 311.753906 C 144.710938 310.78125 144.960938 309.835938 145.308594 308.910156 C 145.652344 307.988281 146.082031 307.109375 146.601562 306.269531 C 147.121094 305.433594 147.714844 304.652344 148.386719 303.933594 C 149.058594 303.210938 149.792969 302.5625 150.59375 301.988281 C 151.394531 301.410156 152.242188 300.917969 153.140625 300.507812 C 154.035156 300.101562 154.964844 299.78125 155.921875 299.558594 C 156.882812 299.332031 157.855469 299.199219 158.839844 299.164062 C 159.824219 299.128906 160.804688 299.191406 161.777344 299.347656 Z M 161.777344 299.347656 " fill-opacity="1" fill-rule="nonzero"/></svg>