<svg xmlns="http://www.w3.org/2000/svg" xmlns:xlink="http://www.w3.org/1999/xlink" width="500" zoomAndPan="magnify" viewBox="0 0 375 374.999991" height="500" preserveAspectRatio="xMidYMid meet" version="1.0"><rect x="-37.5" width="450" fill="#ffffff" y="-37.499999" height="449.999989" fill-opacity="1"/><rect x="-37.5" width="450" fill="#ffffff" y="-37.499999" height="449.999989" fill-opacity="1"/><rect x="-37.5" width="450" fill="#ffffff" y="-37.499999" height="449.999989" fill-opacity="1"/><rect x="-37.5" width="450" fill="#ffffff" y="-37.499999" height="449.999989" fill-opacity="1"/><path fill="#ffcc4d" d="M 189.070312 46.136719 C 111.007812 46.136719 47.710938 109.453125 47.710938 187.535156 C 47.710938 235.066406 71.238281 277.023438 107.191406 302.652344 C 108.007812 252.082031 89.621094 195.390625 58.734375 195.390625 C 55.089844 195.390625 52.140625 195.90625 49.679688 196.828125 C 52.058594 190.878906 57.21875 187.535156 66.871094 187.535156 C 100.40625 187.535156 119.222656 254.351562 114.714844 307.625 C 136.34375 321.050781 161.757812 328.929688 189.070312 328.929688 C 216.394531 328.929688 241.8125 321.042969 263.441406 307.617188 C 258.910156 254.148438 277.71875 187.535156 311.277344 187.535156 C 320.960938 187.535156 326.136719 190.878906 328.492188 196.828125 C 326.027344 195.90625 323.066406 195.390625 319.40625 195.390625 C 288.480469 195.390625 270.101562 251.941406 270.949219 302.652344 C 306.910156 277.023438 330.433594 235.066406 330.433594 187.535156 C 330.433594 109.453125 267.140625 46.136719 189.070312 46.136719 Z M 189.070312 46.136719 " fill-opacity="1" fill-rule="nonzero"/><path fill="#bdddf4" d="M 189.070312 46.136719 C 111.007812 46.136719 47.710938 109.453125 47.710938 187.535156 C 47.710938 196.898438 48.675781 206.042969 50.410156 214.902344 C 52.25 208.121094 55.121094 201.617188 58.71875 195.390625 C 55.082031 195.390625 52.140625 195.90625 49.6875 196.828125 C 51.761719 191.648438 56.144531 188.59375 63.574219 187.855469 C 87.070312 155.027344 134.386719 132.546875 189.070312 132.546875 C 243.761719 132.546875 291.070312 155.019531 314.566406 187.847656 C 322.027344 188.585938 326.425781 191.632812 328.484375 196.828125 C 326.035156 195.90625 323.074219 195.390625 319.429688 195.390625 C 323.027344 201.617188 325.894531 208.121094 327.738281 214.902344 C 329.472656 206.042969 330.433594 196.898438 330.433594 187.535156 C 330.433594 109.453125 267.140625 46.136719 189.070312 46.136719 Z M 189.070312 46.136719 " fill-opacity="1" fill-rule="nonzero"/><path fill="#f5f8fa" d="M 105.410156 139.695312 C 97.980469 164.644531 106.25 189.128906 123.886719 194.382812 C 141.527344 199.648438 161.851562 183.683594 169.273438 158.738281 C 176.703125 133.796875 168.441406 109.300781 150.808594 104.046875 C 133.171875 98.792969 112.84375 114.753906 105.410156 139.695312 Z M 272.726562 139.695312 C 280.15625 164.644531 271.886719 189.128906 254.253906 194.382812 C 236.613281 199.648438 216.289062 183.683594 208.867188 158.738281 C 201.441406 133.796875 209.710938 109.300781 227.332031 104.046875 C 244.964844 98.792969 265.289062 114.753906 272.726562 139.695312 Z M 272.726562 139.695312 " fill-opacity="1" fill-rule="nonzero"/><path fill="#664500" d="M 189.070312 187.535156 C 167.417969 187.535156 149.804688 205.152344 149.804688 226.8125 L 149.804688 273.941406 C 149.804688 295.601562 167.417969 313.21875 189.070312 313.21875 C 210.722656 313.21875 228.335938 295.601562 228.335938 273.941406 L 228.335938 226.8125 C 228.335938 205.152344 210.722656 187.535156 189.070312 187.535156 Z M 189.070312 187.535156 " fill-opacity="1" fill-rule="nonzero"/><path fill="#fcab40" d="M 58.734375 195.390625 C 55.089844 195.390625 52.140625 195.90625 49.679688 196.828125 C 50.246094 195.421875 50.992188 194.1875 51.886719 193.085938 C 37.265625 211.085938 70.082031 270.328125 54.132812 328.929688 L 104.867188 328.929688 C 114.210938 274.257812 95.167969 195.390625 58.734375 195.390625 Z M 328.492188 196.828125 C 326.027344 195.90625 323.066406 195.390625 319.40625 195.390625 C 282.957031 195.390625 263.921875 273.957031 273.28125 328.929688 L 324.015625 328.929688 C 309.046875 273.589844 337.019531 218.257812 328.492188 196.828125 Z M 328.492188 196.828125 " fill-opacity="1" fill-rule="nonzero"/></svg>