<svg xmlns="http://www.w3.org/2000/svg" xmlns:xlink="http://www.w3.org/1999/xlink" width="500" zoomAndPan="magnify" viewBox="0 0 375 374.999991" height="500" preserveAspectRatio="xMidYMid meet" version="1.0"><defs><clipPath id="id1"><path d="M 37.5 48.082031 L 327 48.082031 L 327 337.582031 L 37.5 337.582031 Z M 37.5 48.082031 " clip-rule="nonzero"/></clipPath><clipPath id="id2"><path d="M 37.5 208 L 118 208 L 118 330 L 37.5 330 Z M 37.5 208 " clip-rule="nonzero"/></clipPath></defs><rect x="-37.5" width="450" fill="#ffffff" y="-37.499999" height="449.999989" fill-opacity="1"/><rect x="-37.5" width="450" fill="#ffffff" y="-37.499999" height="449.999989" fill-opacity="1"/><rect x="-37.5" width="450" fill="#ffffff" y="-37.499999" height="449.999989" fill-opacity="1"/><g clip-path="url(#id1)"><path fill="#ffcc4d" d="M 327 192.832031 C 327 272.773438 262.191406 337.582031 182.25 337.582031 C 102.316406 337.582031 37.5 272.773438 37.5 192.832031 C 37.5 112.898438 102.316406 48.082031 182.25 48.082031 C 262.191406 48.082031 327 112.898438 327 192.832031 " fill-opacity="1" fill-rule="nonzero"/></g><path fill="#664500" d="M 150.082031 180.769531 C 150.082031 181.691406 150.050781 182.609375 149.988281 183.527344 C 149.921875 184.445312 149.824219 185.355469 149.695312 186.257812 C 149.570312 187.164062 149.410156 188.058594 149.21875 188.9375 C 149.027344 189.820312 148.804688 190.6875 148.554688 191.539062 C 148.300781 192.390625 148.019531 193.222656 147.710938 194.035156 C 147.398438 194.847656 147.0625 195.640625 146.695312 196.40625 C 146.328125 197.171875 145.9375 197.910156 145.519531 198.625 C 145.101562 199.335938 144.660156 200.019531 144.195312 200.671875 C 143.730469 201.324219 143.242188 201.941406 142.734375 202.527344 C 142.222656 203.109375 141.695312 203.660156 141.148438 204.171875 C 140.601562 204.683594 140.035156 205.15625 139.457031 205.589844 C 138.875 206.027344 138.28125 206.417969 137.671875 206.773438 C 137.0625 207.125 136.445312 207.433594 135.816406 207.703125 C 135.183594 207.96875 134.546875 208.195312 133.902344 208.375 C 133.253906 208.554688 132.605469 208.6875 131.949219 208.777344 C 131.292969 208.871094 130.636719 208.914062 129.980469 208.914062 C 129.320312 208.914062 128.664062 208.871094 128.007812 208.777344 C 127.351562 208.6875 126.703125 208.554688 126.058594 208.375 C 125.410156 208.195312 124.773438 207.96875 124.144531 207.703125 C 123.511719 207.433594 122.894531 207.125 122.285156 206.773438 C 121.675781 206.417969 121.082031 206.027344 120.503906 205.589844 C 119.921875 205.15625 119.355469 204.683594 118.808594 204.171875 C 118.261719 203.660156 117.734375 203.109375 117.226562 202.527344 C 116.714844 201.941406 116.230469 201.324219 115.761719 200.671875 C 115.296875 200.019531 114.855469 199.335938 114.4375 198.625 C 114.019531 197.910156 113.628906 197.171875 113.261719 196.40625 C 112.898438 195.640625 112.558594 194.847656 112.25 194.035156 C 111.9375 193.222656 111.65625 192.390625 111.40625 191.539062 C 111.152344 190.6875 110.933594 189.820312 110.742188 188.9375 C 110.550781 188.058594 110.390625 187.164062 110.261719 186.257812 C 110.132812 185.355469 110.035156 184.445312 109.972656 183.527344 C 109.90625 182.609375 109.875 181.691406 109.875 180.769531 C 109.875 179.847656 109.90625 178.925781 109.972656 178.011719 C 110.035156 177.09375 110.132812 176.183594 110.261719 175.277344 C 110.390625 174.375 110.550781 173.480469 110.742188 172.597656 C 110.933594 171.714844 111.152344 170.847656 111.40625 169.996094 C 111.65625 169.144531 111.9375 168.3125 112.25 167.5 C 112.558594 166.6875 112.898438 165.898438 113.261719 165.132812 C 113.628906 164.363281 114.019531 163.625 114.4375 162.914062 C 114.855469 162.199219 115.296875 161.519531 115.761719 160.867188 C 116.230469 160.214844 116.714844 159.597656 117.226562 159.011719 C 117.734375 158.425781 118.261719 157.878906 118.808594 157.367188 C 119.355469 156.855469 119.921875 156.378906 120.503906 155.945312 C 121.082031 155.511719 121.675781 155.117188 122.285156 154.765625 C 122.894531 154.414062 123.511719 154.101562 124.144531 153.835938 C 124.773438 153.566406 125.410156 153.34375 126.058594 153.164062 C 126.703125 152.984375 127.351562 152.847656 128.007812 152.757812 C 128.664062 152.667969 129.320312 152.621094 129.980469 152.621094 C 130.636719 152.621094 131.292969 152.667969 131.949219 152.757812 C 132.605469 152.847656 133.253906 152.984375 133.902344 153.164062 C 134.546875 153.34375 135.183594 153.566406 135.816406 153.835938 C 136.445312 154.101562 137.0625 154.414062 137.671875 154.765625 C 138.28125 155.117188 138.875 155.511719 139.457031 155.945312 C 140.035156 156.378906 140.601562 156.855469 141.148438 157.367188 C 141.695312 157.878906 142.222656 158.425781 142.734375 159.011719 C 143.242188 159.597656 143.730469 160.214844 144.195312 160.867188 C 144.660156 161.519531 145.101562 162.199219 145.519531 162.914062 C 145.9375 163.625 146.328125 164.363281 146.695312 165.132812 C 147.0625 165.898438 147.398438 166.6875 147.710938 167.5 C 148.019531 168.3125 148.300781 169.144531 148.554688 169.996094 C 148.804688 170.847656 149.027344 171.714844 149.21875 172.597656 C 149.410156 173.480469 149.570312 174.375 149.695312 175.277344 C 149.824219 176.183594 149.921875 177.09375 149.988281 178.011719 C 150.050781 178.925781 150.082031 179.847656 150.082031 180.769531 Z M 150.082031 180.769531 " fill-opacity="1" fill-rule="nonzero"/><path fill="#664500" d="M 254.625 180.769531 C 254.625 181.691406 254.59375 182.609375 254.527344 183.527344 C 254.464844 184.445312 254.367188 185.355469 254.238281 186.257812 C 254.109375 187.164062 253.949219 188.058594 253.757812 188.9375 C 253.566406 189.820312 253.347656 190.6875 253.09375 191.539062 C 252.84375 192.390625 252.5625 193.222656 252.25 194.035156 C 251.941406 194.847656 251.601562 195.640625 251.238281 196.40625 C 250.871094 197.171875 250.480469 197.910156 250.0625 198.625 C 249.644531 199.335938 249.203125 200.019531 248.738281 200.671875 C 248.269531 201.324219 247.785156 201.941406 247.273438 202.527344 C 246.765625 203.109375 246.238281 203.660156 245.691406 204.171875 C 245.144531 204.683594 244.578125 205.15625 243.996094 205.589844 C 243.417969 206.027344 242.824219 206.417969 242.214844 206.773438 C 241.605469 207.125 240.988281 207.433594 240.355469 207.703125 C 239.726562 207.96875 239.089844 208.195312 238.441406 208.375 C 237.796875 208.554688 237.148438 208.6875 236.492188 208.777344 C 235.835938 208.871094 235.179688 208.914062 234.519531 208.914062 C 233.863281 208.914062 233.207031 208.871094 232.550781 208.777344 C 231.894531 208.6875 231.246094 208.554688 230.597656 208.375 C 229.953125 208.195312 229.316406 207.96875 228.683594 207.703125 C 228.054688 207.433594 227.4375 207.125 226.828125 206.773438 C 226.21875 206.417969 225.625 206.027344 225.042969 205.589844 C 224.464844 205.15625 223.898438 204.683594 223.351562 204.171875 C 222.804688 203.660156 222.277344 203.109375 221.765625 202.527344 C 221.257812 201.941406 220.769531 201.324219 220.304688 200.671875 C 219.839844 200.019531 219.398438 199.335938 218.980469 198.625 C 218.5625 197.910156 218.171875 197.171875 217.804688 196.40625 C 217.4375 195.640625 217.101562 194.847656 216.789062 194.035156 C 216.480469 193.222656 216.199219 192.390625 215.945312 191.539062 C 215.695312 190.6875 215.472656 189.820312 215.28125 188.9375 C 215.089844 188.058594 214.929688 187.164062 214.804688 186.257812 C 214.675781 185.355469 214.578125 184.445312 214.511719 183.527344 C 214.449219 182.609375 214.417969 181.691406 214.417969 180.769531 C 214.417969 179.847656 214.449219 178.925781 214.511719 178.011719 C 214.578125 177.09375 214.675781 176.183594 214.804688 175.277344 C 214.929688 174.375 215.089844 173.480469 215.28125 172.597656 C 215.472656 171.714844 215.695312 170.847656 215.945312 169.996094 C 216.199219 169.144531 216.480469 168.3125 216.789062 167.5 C 217.101562 166.6875 217.4375 165.898438 217.804688 165.132812 C 218.171875 164.363281 218.5625 163.625 218.980469 162.914062 C 219.398438 162.199219 219.839844 161.519531 220.304688 160.867188 C 220.769531 160.214844 221.257812 159.597656 221.765625 159.011719 C 222.277344 158.425781 222.804688 157.878906 223.351562 157.367188 C 223.898438 156.855469 224.464844 156.378906 225.042969 155.945312 C 225.625 155.511719 226.21875 155.117188 226.828125 154.765625 C 227.4375 154.414062 228.054688 154.101562 228.683594 153.835938 C 229.316406 153.566406 229.953125 153.34375 230.597656 153.164062 C 231.246094 152.984375 231.894531 152.847656 232.550781 152.757812 C 233.207031 152.667969 233.863281 152.621094 234.519531 152.621094 C 235.179688 152.621094 235.835938 152.667969 236.492188 152.757812 C 237.148438 152.847656 237.796875 152.984375 238.441406 153.164062 C 239.089844 153.34375 239.726562 153.566406 240.355469 153.835938 C 240.988281 154.101562 241.605469 154.414062 242.214844 154.765625 C 242.824219 155.117188 243.417969 155.511719 243.996094 155.945312 C 244.578125 156.378906 245.144531 156.855469 245.691406 157.367188 C 246.238281 157.878906 246.765625 158.425781 247.273438 159.011719 C 247.785156 159.597656 248.269531 160.214844 248.738281 160.867188 C 249.203125 161.519531 249.644531 162.199219 250.0625 162.914062 C 250.480469 163.625 250.871094 164.363281 251.238281 165.132812 C 251.601562 165.898438 251.941406 166.6875 252.25 167.5 C 252.5625 168.3125 252.84375 169.144531 253.09375 169.996094 C 253.347656 170.847656 253.566406 171.714844 253.757812 172.597656 C 253.949219 173.480469 254.109375 174.375 254.238281 175.277344 C 254.367188 176.183594 254.464844 177.09375 254.527344 178.011719 C 254.59375 178.925781 254.625 179.847656 254.625 180.769531 Z M 254.625 180.769531 " fill-opacity="1" fill-rule="nonzero"/><path fill="#664500" d="M 226.359375 272.273438 C 226.269531 271.921875 217.152344 237.058594 182.25 237.058594 C 147.347656 237.058594 138.230469 271.921875 138.140625 272.273438 C 137.714844 273.988281 138.496094 275.742188 140.007812 276.648438 C 141.519531 277.550781 143.488281 277.339844 144.800781 276.167969 C 144.871094 276.109375 152.945312 269.226562 182.25 269.226562 C 211.121094 269.226562 219.378906 275.902344 219.691406 276.167969 C 220.457031 276.898438 221.453125 277.269531 222.457031 277.269531 C 223.132812 277.269531 223.816406 277.101562 224.4375 276.753906 C 226.011719 275.859375 226.800781 274.027344 226.359375 272.273438 Z M 226.359375 272.273438 " fill-opacity="1" fill-rule="nonzero"/><g clip-path="url(#id2)"><path fill="#5dadec" d="M 117.917969 289.332031 C 117.917969 311.542969 99.917969 329.539062 77.707031 329.539062 C 55.496094 329.539062 37.5 311.542969 37.5 289.332031 C 37.5 267.121094 69.667969 208.914062 77.707031 208.914062 C 85.75 208.914062 117.917969 267.121094 117.917969 289.332031 Z M 117.917969 289.332031 " fill-opacity="1" fill-rule="nonzero"/></g><path fill="#664500" d="M 278.75 152.621094 C 234.085938 152.621094 216.007812 117.503906 215.261719 116.007812 C 213.273438 112.035156 214.882812 107.203125 218.855469 105.21875 C 222.8125 103.230469 227.636719 104.832031 229.632812 108.78125 C 230.234375 109.953125 244.273438 136.539062 278.75 136.539062 C 283.195312 136.539062 286.792969 140.140625 286.792969 144.582031 C 286.792969 149.027344 283.195312 152.621094 278.75 152.621094 Z M 85.75 152.621094 C 81.3125 152.621094 77.707031 149.019531 77.707031 144.582031 C 77.707031 140.140625 81.3125 136.539062 85.75 136.539062 C 126.625 136.539062 133.96875 111.449219 134.265625 110.378906 C 135.429688 106.132812 139.8125 103.5625 144.066406 104.679688 C 148.332031 105.796875 150.910156 110.089844 149.84375 114.367188 C 149.449219 115.929688 139.660156 152.621094 85.75 152.621094 Z M 85.75 152.621094 " fill-opacity="1" fill-rule="nonzero"/></svg>